<svg width="159" height="29" viewBox="0 0 159 29" fill="none" xmlns="http://www.w3.org/2000/svg">
<path d="M10.1715 0.196289C10.8903 0.373372 11.2496 0.586914 11.2496 0.836914V1.50879C6.86421 1.50879 4.24442 3.54525 3.39025 7.61816C2.234 11.2952 1.65588 14.113 1.65588 16.0713V20.3994C2.22879 24.5557 3.45796 26.6338 5.34338 26.6338C7.06213 23.7484 7.9215 20.3786 7.9215 16.5244V15.3994C7.9215 13.7327 7.06213 12.5817 5.34338 11.9463L5.109 11.3369C5.109 10.3161 6.55171 9.73796 9.43713 9.60254C9.82254 9.60254 10.1819 9.95671 10.5153 10.665L8.984 12.3994L9.43713 15.2119C8.72879 23.9827 7.28608 28.3682 5.109 28.3682C1.80692 26.8473 0.155876 24.0505 0.155876 19.9775V18.2432C0.155876 12.1077 1.62463 6.88379 4.56213 2.57129C6.31213 0.987956 8.18192 0.196289 10.1715 0.196289ZM19.984 11.3682L20.4059 11.8213L19.984 13.54V14.2119L20.1715 15.9463C19.5986 23.7067 18.385 27.5869 16.5309 27.5869C14.635 27.5869 13.26 23.9098 12.4059 16.5557V15.2744C12.4059 14.1807 12.6923 13.54 13.2653 13.3525H13.7184L14.359 13.7744L14.1246 15.2744V17.415C14.1246 20.2796 14.7757 23.0973 16.0778 25.8682H16.5309C17.5309 25.4619 18.1715 22.7327 18.4528 17.6807V15.4932C18.4528 14.4723 18.3121 13.6755 18.0309 13.1025C18.0309 12.1859 18.6819 11.6077 19.984 11.3682ZM23.484 7.18066C24.0361 7.18066 24.5465 7.46712 25.0153 8.04004C25.0153 8.46712 24.5048 8.96712 23.484 9.54004C23.0986 9.54004 22.7444 9.19108 22.4215 8.49316C22.7028 7.7015 23.0569 7.264 23.484 7.18066ZM23.484 12.8057L24.1559 13.6807C23.583 14.2536 23.2965 15.8317 23.2965 18.415C23.359 21.1442 23.7809 23.8005 24.5621 26.3838V26.8213L23.9371 27.4932H23.2965C22.609 27.4932 22.0934 24.1025 21.7496 17.3213C21.7496 14.3109 22.1871 12.8057 23.0621 12.8057H23.484ZM27.734 2.11816L28.4684 1.93066L28.2965 5.86816L28.234 9.38379L28.4059 19.4932L28.2028 23.8213L28.6559 26.415C28.6559 26.6859 28.2809 27.1234 27.5309 27.7275L26.484 26.8525C26.7757 26.113 26.9215 24.5973 26.9215 22.3057V21.8994L27.2496 2.82129C27.4996 2.35254 27.6611 2.11816 27.734 2.11816ZM31.359 1.60254H31.9996L32.6403 2.24316V2.47754L32.2184 4.19629V5.71191L32.6403 16.5244L32.859 17.165H33.2809C34.2392 13.5609 35.6819 11.7588 37.609 11.7588C38.9944 11.7588 39.7913 15.7223 39.9996 23.6494L40.4215 26.0244L39.7809 27.1182C39.0309 27.1182 38.5934 26.389 38.4684 24.9307V23.4307C38.4684 16.9515 37.8903 13.7119 36.734 13.7119C34.9632 14.389 33.885 17.8421 33.4996 24.0713C33.5934 26.1025 33.7444 27.1182 33.9528 27.1182C33.6507 27.7536 33.3642 28.1025 33.0934 28.165H32.4215C31.7132 27.7588 31.359 27.1859 31.359 26.4463L31.7809 25.3838C31.1767 10.54 30.5986 3.11816 30.0465 3.11816C30.2861 2.47233 30.7236 1.96712 31.359 1.60254ZM46.2028 9.29004C48.5048 9.96712 49.6559 11.1182 49.6559 12.7432V13.3838C49.6559 16.6025 48.2132 18.8317 45.3278 20.0713H43.859V20.5244C43.859 23.1077 44.4996 24.9098 45.7809 25.9307H46.4528C47.2653 25.9307 48.4163 24.7796 49.9059 22.4775L50.0934 22.665H50.3278C49.2965 25.988 47.8538 27.6494 45.9996 27.6494C44.3121 27.6494 42.9371 24.6963 41.8746 18.79C41.6455 18.79 41.5048 18.4307 41.4528 17.7119C42.0361 17.264 42.5517 15.3942 42.9996 12.1025C44.1038 10.2275 45.1715 9.29004 46.2028 9.29004ZM43.609 17.29C43.734 17.9984 43.958 18.3525 44.2809 18.3525H45.5934C47.3225 17.54 48.1871 15.8838 48.1871 13.3838V13.165C47.9684 11.738 47.3069 11.0244 46.2028 11.0244C44.4736 11.0244 43.609 13.113 43.609 17.29ZM58.2653 10.2119H58.9059L59.7809 11.0869V11.5244L59.3278 11.9463L58.2653 11.7275C55.9632 14.7692 54.8121 17.6494 54.8121 20.3682V23.8213L55.0153 26.2119C55.0153 26.7952 54.6611 27.0869 53.9528 27.0869V27.2744C53.3798 27.0557 53.0934 26.8421 53.0934 26.6338V24.2588C52.5517 17.3525 52.1142 13.8994 51.7809 13.8994C52.0725 13.0244 52.359 12.5869 52.6403 12.5869H52.859C53.4423 12.8161 53.734 13.3265 53.734 14.1182V16.4932H53.9528C55.3798 13.3786 56.8173 11.2848 58.2653 10.2119ZM70.8903 8.99316C72.234 8.99316 73.1819 13.3786 73.734 22.1494V26.4775L73.0621 27.1494C72.4475 27.1494 72.01 26.8577 71.7496 26.2744L72.2028 21.7432C71.8798 15.2952 71.3798 11.9775 70.7028 11.79H70.2809C68.958 15.3734 68.2965 19.9775 68.2965 25.6025L67.6871 26.0557H66.8278C66.5673 26.0557 66.3434 25.6911 66.1559 24.9619C66.7288 23.9619 67.0153 21.4463 67.0153 17.415C66.8278 14.6859 66.4736 13.3213 65.9528 13.3213H65.7028C64.5465 13.3213 63.9684 16.5557 63.9684 23.0244V24.7432L64.234 26.0557C63.9111 26.9098 63.333 27.3369 62.4996 27.3369L61.6403 26.2744L62.0621 23.4619V22.3838L61.3903 12.6494C61.3903 11.8369 61.76 11.3369 62.4996 11.1494C63.083 11.2952 63.3746 11.7327 63.3746 12.4619L62.9215 13.7432V14.1807H63.109C64.2444 12.0036 65.109 10.915 65.7028 10.915C66.4736 10.915 67.2757 11.7171 68.109 13.3213C68.4007 13.3213 68.9007 12.0921 69.609 9.63379L70.8903 8.99316ZM79.5465 9.29004C81.8486 9.96712 82.9996 11.1182 82.9996 12.7432V13.3838C82.9996 16.6025 81.5569 18.8317 78.6715 20.0713H77.2028V20.5244C77.2028 23.1077 77.8434 24.9098 79.1246 25.9307H79.7965C80.609 25.9307 81.76 24.7796 83.2496 22.4775L83.4371 22.665H83.6715C82.6403 25.988 81.1975 27.6494 79.3434 27.6494C77.6559 27.6494 76.2809 24.6963 75.2184 18.79C74.9892 18.79 74.8486 18.4307 74.7965 17.7119C75.3798 17.264 75.8955 15.3942 76.3434 12.1025C77.4475 10.2275 78.5153 9.29004 79.5465 9.29004ZM76.9528 17.29C77.0778 17.9984 77.3017 18.3525 77.6246 18.3525H78.9371C80.6663 17.54 81.5309 15.8838 81.5309 13.3838V13.165C81.3121 11.738 80.6507 11.0244 79.5465 11.0244C77.8173 11.0244 76.9528 13.113 76.9528 17.29ZM103.484 0.805664C103.974 0.961914 104.26 1.25358 104.343 1.68066C103.77 6.49316 103.484 10.0869 103.484 12.4619V19.1494L103.703 22.1494L103.484 22.8213C103.588 24.4046 103.802 25.1963 104.125 25.1963C105.573 23.0817 107.224 18.2588 109.078 10.7275V9.19629L108.656 8.55566C109.02 7.55566 109.448 7.05566 109.937 7.05566C110.77 7.05566 111.286 7.55566 111.484 8.55566L111.25 10.0557C111.875 18.9932 112.817 23.4619 114.078 23.4619C114.838 23.4619 115.338 20.8734 115.578 15.6963V12.0088C115.578 9.93587 115.364 6.46712 114.937 1.60254L115.797 0.102539C116.369 0.248372 116.656 0.675456 116.656 1.38379L117.078 14.8213C116.547 22.165 115.547 25.8369 114.078 25.8369C112.369 25.8369 111.067 21.665 110.172 13.3213C109.786 13.5609 108.843 16.1546 107.343 21.1025C105.708 25.915 104.494 28.3577 103.703 28.4307H103.25C102.885 28.4307 102.672 28.139 102.609 27.5557H102.39L102.172 17.415V14.8213C102.192 5.47754 102.562 0.805664 103.281 0.805664H103.484ZM126.172 11.3682L126.593 11.8213L126.172 13.54V14.2119L126.359 15.9463C125.786 23.7067 124.573 27.5869 122.718 27.5869C120.823 27.5869 119.448 23.9098 118.593 16.5557V15.2744C118.593 14.1807 118.88 13.54 119.453 13.3525H119.906L120.547 13.7744L120.312 15.2744V17.415C120.312 20.2796 120.963 23.0973 122.265 25.8682H122.718C123.718 25.4619 124.359 22.7327 124.64 17.6807V15.4932C124.64 14.4723 124.5 13.6755 124.218 13.1025C124.218 12.1859 124.869 11.6077 126.172 11.3682ZM134.562 9.35254L134.797 9.60254V10.0244C132.057 11.9619 130.687 13.9775 130.687 16.0713V16.5244C130.687 18.0557 131.916 20.2067 134.375 22.9775L134.562 23.8525C133.52 26.5817 131.505 27.9463 128.515 27.9463C126.942 27.9463 126.156 27.3682 126.156 26.2119L128.734 26.4463H129.609C131.63 25.9567 132.64 25.0921 132.64 23.8525V23.6182C132.64 23.264 131.63 21.613 129.609 18.665L128.968 16.2588C128.968 13.613 130.698 11.3109 134.156 9.35254H134.562ZM138.047 1.57129L138.531 1.54004L138.625 3.08691V3.30566C138.625 6.60775 138.838 8.25879 139.265 8.25879L141.375 7.55566C141.52 7.85775 141.661 8.17025 141.797 8.49316C141.536 8.72233 141.479 8.86816 141.625 8.93066L139.031 10.2119L139.484 21.4463V22.3057C139.442 24.4202 139.291 26.1182 139.031 27.3994L138.015 27.3369L137.953 23.9775V18.6338V16.2588C137.953 12.5296 137.739 10.665 137.312 10.665L135.328 10.8213L134.625 10.54L134.687 10.0244L135.062 9.93066H135.484C136.849 9.73275 137.531 9.25358 137.531 8.49316L137.078 2.02441L137.312 1.83691L138.047 1.57129ZM148.547 10.2119H149.187L150.062 11.0869V11.5244L149.609 11.9463L148.547 11.7275C146.244 14.7692 145.093 17.6494 145.093 20.3682V23.8213L145.297 26.2119C145.297 26.7952 144.942 27.0869 144.234 27.0869V27.2744C143.661 27.0557 143.375 26.8421 143.375 26.6338V24.2588C142.833 17.3525 142.395 13.8994 142.062 13.8994C142.354 13.0244 142.64 12.5869 142.922 12.5869H143.14C143.724 12.8161 144.015 13.3265 144.015 14.1182V16.4932H144.234C145.661 13.3786 147.099 11.2848 148.547 10.2119ZM155.922 10.4775C157.265 10.4775 158.203 12.4046 158.734 16.2588L158.515 16.5244V17.8057C158.151 24.4411 157 27.7588 155.062 27.7588L154.828 27.9463H154.609C152.453 27.4567 151.375 24.7171 151.375 19.7275C151.375 13.5609 152.89 10.4775 155.922 10.4775ZM152.687 18.665C153.01 23.6963 153.651 26.2119 154.609 26.2119H154.828C156.047 26.2119 156.838 23.6234 157.203 18.4463V15.3994C157.203 13.4619 156.562 12.3942 155.281 12.1963C153.552 12.7067 152.687 14.863 152.687 18.665Z" fill="#01121E"/>
</svg>
