<svg width="214" height="23" viewBox="0 0 214 23" fill="none" xmlns="http://www.w3.org/2000/svg">
<g filter="url(#filter0_d_599_3)">
<path d="M11.3626 14.8239C8.66264 14.8239 6.48464 14.5779 4.82864 14.0859C3.17264 13.5819 1.96064 12.8799 1.19264 11.9799C0.436641 11.0679 0.0586411 10.0119 0.0586411 8.81187C0.0586411 7.37187 0.244641 6.10587 0.616641 5.01387C0.988641 3.92187 1.48664 3.00987 2.11064 2.27787C2.73464 1.53387 3.43064 0.975867 4.19864 0.603866C4.96664 0.231866 5.74664 0.0458661 6.53864 0.0458661C7.46264 0.0458661 8.39264 0.141866 9.32864 0.333867C10.2646 0.525866 11.1166 0.819866 11.8846 1.21587L10.8766 4.14987C10.1206 3.38187 9.32864 2.78187 8.50064 2.34987C7.68464 1.90587 6.85064 1.68387 5.99864 1.68387C5.59064 1.68387 5.20064 1.86387 4.82864 2.22387C4.45664 2.57187 4.12664 3.03387 3.83864 3.60987C3.55064 4.17387 3.32264 4.79787 3.15464 5.48187C2.99864 6.16587 2.92064 6.83187 2.92064 7.47987C2.92064 8.31987 3.02864 9.08187 3.24464 9.76587C3.46064 10.4379 3.82664 11.0439 4.34264 11.5839C4.87064 12.1119 5.58464 12.5739 6.48464 12.9699C7.39664 13.3539 8.54264 13.6779 9.92264 13.9419L9.52664 9.17187L5.72864 8.27187V8.05587L12.3526 6.43587L11.9026 14.8239H11.3626ZM25.5113 0.243867H25.7453L26.3573 9.60387C26.3573 9.65187 26.3573 9.70587 26.3573 9.76587C26.3693 9.81387 26.3753 9.86787 26.3753 9.92787C26.3753 10.8759 26.1233 11.7219 25.6193 12.4659C25.1153 13.1979 24.4313 13.7739 23.5673 14.1939C22.7153 14.6139 21.7613 14.8239 20.7053 14.8239C19.5773 14.8239 18.6173 14.5839 17.8253 14.1039C17.0453 13.6239 16.4453 12.9879 16.0253 12.1959C15.6173 11.4039 15.3953 10.5399 15.3593 9.60387L14.9993 0.423867H18.3293L17.7893 9.45987C17.7893 9.53187 17.7833 9.60387 17.7713 9.67587C17.7713 9.73587 17.7713 9.79587 17.7713 9.85587C17.7713 10.9719 18.0413 11.8599 18.5813 12.5199C19.1213 13.1679 19.8293 13.4919 20.7053 13.4919C21.1853 13.4919 21.6233 13.3179 22.0193 12.9699C22.4273 12.6099 22.7753 12.1179 23.0633 11.4939C23.3633 10.8579 23.5913 10.1319 23.7473 9.31587L25.5113 0.243867ZM30.13 14.4639L29.626 0.423867H33.01L32.506 14.4639H30.13ZM36.7553 14.6979L36.2513 0.423867H39.5813L39.0773 11.8179L45.5393 12.7899L45.5213 13.0239L36.7553 14.6979ZM56.2095 14.4639L55.9575 7.62387L50.7015 8.36187L50.4855 14.4639H48.1635L47.6595 0.423867H50.9895L50.7915 5.98587L55.9395 6.90387L55.7055 0.423867H59.0715L58.5675 14.4639H56.2095ZM62.8978 14.6439L62.2318 0.423867H65.5078L65.4718 1.79187L71.9518 0.243867V3.15987L65.4538 2.52987L65.3458 7.08387L71.0338 5.75187V8.61387L65.3278 7.80387L65.2198 12.1419L72.3118 12.8979V13.0779L62.8978 14.6439ZM85.5319 14.6979L78.1159 8.09187L78.1339 7.83987C78.8419 7.69587 79.4779 7.44387 80.0419 7.08387C80.6179 6.71187 81.0979 6.29187 81.4819 5.82387C81.8779 5.34387 82.1539 4.86987 82.3099 4.40187C82.4179 4.08987 82.4719 3.79587 82.4719 3.51987C82.4719 3.05187 82.3099 2.66787 81.9859 2.36787C81.6619 2.06787 81.1639 1.91787 80.4919 1.91787C79.6639 1.91787 78.7939 2.03187 77.8819 2.25987L77.6119 14.4639H75.3079L74.6419 0.423867H77.9179L77.8999 1.41387C78.4639 1.10187 79.0339 0.861866 79.6099 0.693866C80.1979 0.513867 80.7619 0.423867 81.3019 0.423867C82.3099 0.423867 83.1139 0.591867 83.7139 0.927867C84.3139 1.25187 84.7459 1.66587 85.0099 2.16987C85.2859 2.66187 85.4239 3.17187 85.4239 3.69987C85.4239 4.05987 85.3699 4.39587 85.2619 4.70787C85.0939 5.22387 84.7999 5.69187 84.3799 6.11187C83.9719 6.51987 83.4979 6.86187 82.9579 7.13787C82.4299 7.41387 81.9079 7.61787 81.3919 7.74987L85.7659 14.7159L85.5319 14.6979ZM99.505 14.4639L98.983 3.93387L94.969 13.0959H94.843L90.811 3.93387L89.173 14.7159H88.903L87.913 0.423867H91.225L95.599 7.69587L98.947 0.423867H101.881L101.611 14.4639H99.505ZM105.701 14.6439L105.035 0.423867H108.311L108.275 1.79187L114.755 0.243867V3.15987L108.257 2.52987L108.149 7.08387L113.837 5.75187V8.61387L108.131 7.80387L108.023 12.1419L115.115 12.8979V13.0779L105.701 14.6439ZM135.368 14.6979L130.526 5.67987L126.674 14.6979H126.476L122.318 0.783866L125.576 0.063867L127.286 9.36987L129.788 2.29587L132.254 1.89987L134.63 8.90187L138.968 0.261867H139.238L135.512 14.6979H135.368ZM151.67 0.243867H151.904L152.516 9.60387C152.516 9.65187 152.516 9.70587 152.516 9.76587C152.528 9.81387 152.534 9.86787 152.534 9.92787C152.534 10.8759 152.282 11.7219 151.778 12.4659C151.274 13.1979 150.59 13.7739 149.726 14.1939C148.874 14.6139 147.92 14.8239 146.864 14.8239C145.736 14.8239 144.776 14.5839 143.984 14.1039C143.204 13.6239 142.604 12.9879 142.184 12.1959C141.776 11.4039 141.554 10.5399 141.518 9.60387L141.158 0.423867H144.488L143.948 9.45987C143.948 9.53187 143.942 9.60387 143.93 9.67587C143.93 9.73587 143.93 9.79587 143.93 9.85587C143.93 10.9719 144.2 11.8599 144.74 12.5199C145.28 13.1679 145.988 13.4919 146.864 13.4919C147.344 13.4919 147.782 13.3179 148.178 12.9699C148.586 12.6099 148.934 12.1179 149.222 11.4939C149.522 10.8579 149.75 10.1319 149.906 9.31587L151.67 0.243867ZM165.864 10.7559C165.792 11.7879 165.504 12.6039 165 13.2039C164.496 13.7919 163.86 14.2119 163.092 14.4639C162.336 14.7039 161.52 14.8239 160.644 14.8239C160.02 14.8239 159.342 14.6619 158.61 14.3379C157.89 14.0139 157.188 13.5279 156.504 12.8799C155.82 12.2319 155.22 11.4159 154.704 10.4319L154.83 10.3059C155.31 10.6779 155.82 11.0139 156.36 11.3139C156.912 11.6139 157.458 11.8719 157.998 12.0879C158.538 12.2919 159.036 12.4479 159.492 12.5559C159.96 12.6639 160.338 12.7179 160.626 12.7179C161.19 12.7179 161.664 12.5859 162.048 12.3219C162.444 12.0579 162.672 11.6199 162.732 11.0079V10.9539C162.732 10.6899 162.558 10.4139 162.21 10.1259C161.862 9.82587 161.406 9.50787 160.842 9.17187C160.29 8.83587 159.702 8.48187 159.078 8.10987C158.466 7.73787 157.884 7.35387 157.332 6.95787C156.78 6.54987 156.324 6.12987 155.964 5.69787C155.616 5.26587 155.442 4.81587 155.442 4.34787C155.442 4.28787 155.442 4.23987 155.442 4.20387C155.442 4.15587 155.448 4.10787 155.46 4.05987C155.604 3.25587 155.922 2.55387 156.414 1.95387C156.918 1.35387 157.518 0.885866 158.214 0.549866C158.922 0.213866 159.654 0.0458661 160.41 0.0458661C161.178 0.0458661 162 0.165866 162.876 0.405867C163.764 0.633867 164.67 0.963867 165.594 1.39587L164.586 4.32987C163.65 3.41787 162.846 2.74587 162.174 2.31387C161.502 1.88187 160.866 1.66587 160.266 1.66587C159.618 1.66587 159.12 1.82787 158.772 2.15187C158.436 2.46387 158.244 2.99187 158.196 3.73587V3.78987C158.196 4.06587 158.334 4.34187 158.61 4.61787C158.886 4.89387 159.252 5.17587 159.708 5.46387C160.164 5.73987 160.662 6.02787 161.202 6.32787C161.754 6.61587 162.3 6.92187 162.84 7.24587C163.392 7.55787 163.896 7.89387 164.352 8.25387C164.808 8.60187 165.174 8.97387 165.45 9.36987C165.726 9.75387 165.864 10.1679 165.864 10.6119V10.7559ZM171.531 14.4639L171.045 2.49387L167.301 2.97987V0.243867L178.443 1.26987V1.52187L174.357 2.06187L173.871 14.4639H171.531ZM190.878 14.6979L183.462 8.09187L183.48 7.83987C184.188 7.69587 184.824 7.44387 185.388 7.08387C185.964 6.71187 186.444 6.29187 186.828 5.82387C187.224 5.34387 187.5 4.86987 187.656 4.40187C187.764 4.08987 187.818 3.79587 187.818 3.51987C187.818 3.05187 187.656 2.66787 187.332 2.36787C187.008 2.06787 186.51 1.91787 185.838 1.91787C185.01 1.91787 184.14 2.03187 183.228 2.25987L182.958 14.4639H180.654L179.988 0.423867H183.264L183.246 1.41387C183.81 1.10187 184.38 0.861866 184.956 0.693866C185.544 0.513867 186.108 0.423867 186.648 0.423867C187.656 0.423867 188.46 0.591867 189.06 0.927867C189.66 1.25187 190.092 1.66587 190.356 2.16987C190.632 2.66187 190.77 3.17187 190.77 3.69987C190.77 4.05987 190.716 4.39587 190.608 4.70787C190.44 5.22387 190.146 5.69187 189.726 6.11187C189.318 6.51987 188.844 6.86187 188.304 7.13787C187.776 7.41387 187.254 7.61787 186.738 7.74987L191.112 14.7159L190.878 14.6979ZM199.037 14.8239C198.353 14.8239 197.633 14.6559 196.877 14.3199C196.133 13.9719 195.431 13.4739 194.771 12.8259C194.111 12.1779 193.577 11.3979 193.169 10.4859C192.761 9.57387 192.557 8.54787 192.557 7.40787C192.557 6.51987 192.689 5.69787 192.953 4.94187C193.229 4.17387 193.595 3.48987 194.051 2.88987C194.507 2.28987 195.017 1.77987 195.581 1.35987C196.145 0.927866 196.721 0.603866 197.309 0.387866C197.909 0.159866 198.485 0.0458661 199.037 0.0458661C199.577 0.0458661 200.141 0.159866 200.729 0.387866C201.329 0.615867 201.905 0.945867 202.457 1.37787C203.021 1.79787 203.531 2.30787 203.987 2.90787C204.443 3.50787 204.803 4.18587 205.067 4.94187C205.331 5.69787 205.463 6.51987 205.463 7.40787C205.463 8.54787 205.259 9.57387 204.851 10.4859C204.443 11.3979 203.915 12.1779 203.267 12.8259C202.619 13.4739 201.923 13.9719 201.179 14.3199C200.435 14.6559 199.721 14.8239 199.037 14.8239ZM199.757 13.2759C200.321 13.2759 200.819 13.0899 201.251 12.7179C201.683 12.3459 202.019 11.8299 202.259 11.1699C202.511 10.4979 202.637 9.72387 202.637 8.84787C202.637 7.63587 202.499 6.57987 202.223 5.67987C201.947 4.76787 201.587 4.01187 201.143 3.41187C200.699 2.81187 200.225 2.36187 199.721 2.06187C199.229 1.76187 198.761 1.61187 198.317 1.61187C197.765 1.61187 197.267 1.79787 196.823 2.16987C196.379 2.52987 196.025 3.03387 195.761 3.68187C195.509 4.32987 195.383 5.09187 195.383 5.96787C195.383 7.25187 195.521 8.35587 195.797 9.27987C196.085 10.2039 196.451 10.9599 196.895 11.5479C197.351 12.1359 197.831 12.5739 198.335 12.8619C198.839 13.1379 199.313 13.2759 199.757 13.2759Z" fill="#17364D"/>
</g>
<defs>
<filter id="filter0_d_599_3" x="0.0585938" y="0.0458984" width="213.404" height="22.7781" filterUnits="userSpaceOnUse" color-interpolation-filters="sRGB">
<feFlood flood-opacity="0" result="BackgroundImageFix"/>
<feColorMatrix in="SourceAlpha" type="matrix" values="0 0 0 0 0 0 0 0 0 0 0 0 0 0 0 0 0 0 127 0" result="hardAlpha"/>
<feOffset dx="4" dy="4"/>
<feGaussianBlur stdDeviation="2"/>
<feComposite in2="hardAlpha" operator="out"/>
<feColorMatrix type="matrix" values="0 0 0 0 0.0901961 0 0 0 0 0.211765 0 0 0 0 0.301961 0 0 0 1 0"/>
<feBlend mode="normal" in2="BackgroundImageFix" result="effect1_dropShadow_599_3"/>
<feBlend mode="normal" in="SourceGraphic" in2="effect1_dropShadow_599_3" result="shape"/>
</filter>
</defs>
</svg>
