<svg width="25" height="19" viewBox="0 0 25 19" fill="none" xmlns="http://www.w3.org/2000/svg">
<path fill-rule="evenodd" clip-rule="evenodd" d="M0.524414 0.498535H24.5244V18.4985H0.524414V0.498535Z" fill="#229E45"/>
<path fill-rule="evenodd" clip-rule="evenodd" d="M12.577 16.8486L23.8833 9.50981L12.5095 2.14856L1.16577 9.52481L12.577 16.8486Z" fill="#F8E509"/>
<path fill-rule="evenodd" clip-rule="evenodd" d="M17.5045 9.49853C17.5045 12.1348 15.3632 14.2723 12.7195 14.2723C11.7747 14.2708 10.8516 13.9892 10.0669 13.4632C9.28213 12.9372 8.67096 12.1903 8.31062 11.317C7.95029 10.4437 7.85696 9.48312 8.04246 8.55677C8.22795 7.63042 8.68392 6.77986 9.35274 6.11261C10.0216 5.44537 10.8732 4.99139 11.8 4.80808C12.7268 4.62477 13.6871 4.72036 14.5596 5.08275C15.432 5.44514 16.1775 6.05807 16.7017 6.84406C17.2258 7.63004 17.5052 8.55379 17.5045 9.49853Z" fill="#2B49A3"/>
<path fill-rule="evenodd" clip-rule="evenodd" d="M11.1483 12.3598L10.9983 12.2735L10.8483 12.3485L10.882 12.1798L10.762 12.0523L10.9308 12.0335L11.0133 11.8835L11.0845 12.041L11.2495 12.071L11.1258 12.1835M14.3508 13.1698L14.2045 13.0835L14.0545 13.1585L14.0845 12.9898L13.9683 12.866L14.137 12.8473L14.2158 12.6935L14.2908 12.851L14.4558 12.881L14.3283 12.9973M12.9708 11.8723L12.8433 11.7973L12.712 11.8648L12.742 11.7185L12.637 11.6098L12.787 11.5948L12.8545 11.4598L12.9145 11.5985L13.0608 11.6248L12.9483 11.726M16.2108 11.4073L16.0833 11.3323L15.952 11.3998L15.982 11.2535L15.8808 11.1485L16.027 11.1335L16.0945 11.0023L16.1545 11.1373L16.297 11.1635L16.1883 11.261M12.9145 10.436L12.7645 10.3535L12.6145 10.4285L12.6445 10.256L12.5283 10.1323L12.697 10.1135L12.7758 9.95975L12.8508 10.1173L13.0158 10.1473L12.8883 10.2673M8.96575 8.95475L8.81575 8.87225L8.66575 8.94725L8.70325 8.77475L8.5795 8.651L8.752 8.63225L8.827 8.4785L8.902 8.636L9.067 8.666L8.94325 8.78225M9.442 10.9273L9.292 10.841L9.142 10.916L9.17575 10.7473L9.05575 10.6235L9.2245 10.601L9.30325 10.451L9.37825 10.6085L9.54325 10.6385L9.4195 10.7548M14.3695 8.231L14.2345 8.156L14.0995 8.2235L14.1295 8.0735L14.0245 7.961L14.1745 7.94225L14.2458 7.80725L14.3095 7.94975L14.4595 7.976L14.347 8.07725M14.0958 9.5135L13.9945 9.4535L13.8858 9.506L13.9083 9.386L13.8258 9.29975L13.9458 9.28475L14.002 9.17975L14.0508 9.29225L14.1633 9.311L14.0808 9.3935M8.74825 11.2835L8.647 11.2273L8.54575 11.276L8.56825 11.1635L8.4895 11.081L8.602 11.066L8.6545 10.9648L8.70325 11.0698L8.81575 11.0923L8.7295 11.1673M16.237 11.741L16.1545 11.6998L16.072 11.7373L16.0908 11.651L16.027 11.591L16.117 11.5798L16.162 11.5048L16.1995 11.5798L16.2933 11.5985L16.222 11.6548" fill="#FFFFEF"/>
<path fill-rule="evenodd" clip-rule="evenodd" d="M8.74825 11.2836L8.647 11.2273L8.54575 11.2761L8.56825 11.1636L8.4895 11.0811L8.602 11.0661L8.6545 10.9648L8.70325 11.0698L8.81575 11.0923L8.7295 11.1673" fill="#FFFFEF"/>
<path fill-rule="evenodd" clip-rule="evenodd" d="M8.74825 11.2835L8.647 11.2273L8.54575 11.276L8.56825 11.1635L8.4895 11.081L8.602 11.066L8.6545 10.9648L8.70325 11.0698L8.81575 11.0923L8.7295 11.1673M10.3158 11.2798L10.2183 11.2273L10.117 11.276L10.1395 11.1635L10.0608 11.081L10.1733 11.066L10.2258 10.9648L10.2745 11.0698L10.387 11.0885L10.3008 11.1673M10.1208 11.8048L10.0233 11.7485L9.922 11.801L9.9445 11.6885L9.86575 11.6023L9.97825 11.5873L10.0308 11.486L10.0795 11.591L10.192 11.6135L10.1058 11.6885M13.3833 10.856L13.2858 10.796L13.1808 10.8485L13.2033 10.736L13.1283 10.6498L13.2408 10.6385L13.2933 10.5373L13.3383 10.6423L13.4508 10.661L13.3683 10.7398M12.427 10.8523L12.3258 10.796L12.2245 10.8485L12.247 10.736L12.172 10.6498L12.2845 10.6385L12.337 10.5335L12.382 10.6423L12.4945 10.661L12.412 10.7398M9.832 10.5223L9.76825 10.4848L9.7045 10.5148L9.7195 10.4435L9.67075 10.391L9.742 10.3835L9.772 10.3198L9.802 10.3873L9.87325 10.3985L9.82075 10.4473M16.1133 12.1498L16.0158 12.0935L15.9145 12.146L15.937 12.0335L15.8583 11.9473L15.9708 11.9323L16.0233 11.831L16.072 11.936L16.1845 11.9585L16.0983 12.0335M15.3183 12.2585L15.2358 12.206L15.1495 12.251L15.1683 12.1535L15.1045 12.086L15.1983 12.0748L15.2433 11.9885L15.2808 12.0785L15.3745 12.0935L15.3033 12.161M15.6933 12.2473L15.6183 12.2023L15.5395 12.2398L15.5545 12.1535L15.4945 12.0898L15.5808 12.0785L15.622 12.0035L15.6595 12.0785L15.7458 12.0973L15.682 12.1573M16.7733 11.3023L16.6983 11.2648L16.6233 11.3023L16.642 11.216L16.582 11.1523L16.6683 11.141L16.7058 11.066L16.7433 11.1448L16.822 11.1598L16.762 11.2198M15.307 12.7873L15.2133 12.7348L15.112 12.7798L15.1345 12.6748L15.0595 12.5998L15.172 12.5885L15.2208 12.4948L15.2658 12.5923L15.3783 12.611L15.292 12.6823M15.3145 13.2148L15.2245 13.1623L15.1345 13.211L15.157 13.106L15.0858 13.031L15.187 13.016L15.232 12.9223L15.2733 13.0198L15.3745 13.0385L15.2995 13.1135M14.587 12.2473L14.5158 12.2023L14.4408 12.2398L14.4558 12.1573L14.3995 12.0935L14.482 12.086L14.5195 12.011L14.557 12.086L14.6395 12.101L14.5795 12.161M13.912 12.2473L13.837 12.2023L13.762 12.2398L13.7808 12.1573L13.7208 12.0935L13.807 12.086L13.8445 12.011L13.882 12.086L13.9608 12.101L13.9008 12.161M12.7608 11.2385L12.6858 11.1973L12.6108 11.2348L12.6295 11.1485L12.5695 11.0885L12.652 11.0773L12.6895 11.0023L12.727 11.0773L12.8095 11.096L12.7495 11.1523M12.8883 13.2898L12.8283 13.256L12.7608 13.2898L12.7758 13.2148L12.727 13.1623L12.7983 13.1548L12.832 13.091L12.862 13.1585L12.9333 13.1698L12.8808 13.2185M11.1483 9.971L10.9983 9.88475L10.8483 9.95975L10.882 9.791L10.762 9.66725L10.9308 9.64475L11.0133 9.49475L11.0845 9.65225L11.2495 9.68225L11.1258 9.7985" fill="#FFFFEF"/>
<path fill-rule="evenodd" clip-rule="evenodd" d="M17.1895 11.2161C17.2824 10.975 17.3551 10.7267 17.407 10.4736C14.8645 8.24234 12.0332 7.09859 8.45571 7.33484C8.32596 7.58591 8.21927 7.84823 8.13696 8.11859C12.3745 7.71359 15.487 9.58859 17.1895 11.2161Z" fill="white"/>
<path d="M16.0495 9.96351L16.1358 10.0123C16.1229 10.0377 16.1189 10.0668 16.1245 10.0948C16.1333 10.1219 16.1521 10.1447 16.177 10.1585C16.2033 10.1773 16.2295 10.1885 16.252 10.1848C16.2745 10.1848 16.2895 10.1735 16.3008 10.1585C16.3073 10.1486 16.31 10.1365 16.3083 10.1248C16.3052 10.1109 16.2988 10.098 16.2895 10.0873C16.282 10.076 16.2633 10.0498 16.2333 10.0198C16.2024 9.98794 16.1794 9.94944 16.1658 9.90726C16.1564 9.87533 16.1588 9.84111 16.1726 9.81082C16.1864 9.78054 16.2106 9.7562 16.2408 9.74226C16.2681 9.73088 16.2982 9.72826 16.327 9.73476C16.3623 9.74288 16.3955 9.7582 16.4245 9.77976C16.477 9.81726 16.5108 9.85476 16.522 9.89976C16.5272 9.92081 16.5279 9.94271 16.524 9.96404C16.5201 9.98537 16.5118 10.0056 16.4995 10.0235L16.4095 9.96726C16.4208 9.94476 16.4245 9.92226 16.417 9.90351C16.4133 9.88476 16.3983 9.86601 16.372 9.85101C16.3528 9.83552 16.3292 9.82635 16.3045 9.82476C16.2977 9.82453 16.291 9.82616 16.2851 9.82946C16.2791 9.83276 16.2742 9.83762 16.2708 9.84351C16.2633 9.85476 16.2633 9.86601 16.267 9.88101C16.2708 9.89601 16.2895 9.92601 16.327 9.96351C16.3645 10.001 16.387 10.0348 16.402 10.0573C16.4154 10.0818 16.4215 10.1097 16.4195 10.1377C16.4175 10.1656 16.4075 10.1923 16.3908 10.2148C16.3732 10.2403 16.3484 10.2599 16.3195 10.271C16.2914 10.284 16.26 10.2879 16.2295 10.2823C16.1958 10.2748 16.162 10.2598 16.1245 10.2335C16.0683 10.196 16.0345 10.1548 16.0233 10.1098C16.0111 10.0587 16.0191 10.005 16.0458 9.95976L16.0495 9.96351ZM15.6145 9.67851L15.7083 9.72726C15.6967 9.75316 15.694 9.78219 15.7008 9.80976C15.7104 9.8355 15.729 9.85684 15.7533 9.86976C15.7833 9.88851 15.8058 9.89601 15.8283 9.89226C15.8508 9.89226 15.8658 9.88101 15.877 9.86226C15.8827 9.85334 15.8854 9.84281 15.8845 9.83226C15.8845 9.82101 15.877 9.80601 15.8658 9.79476C15.8466 9.77157 15.8266 9.74906 15.8058 9.72726C15.7645 9.68601 15.7383 9.65226 15.7308 9.62226C15.7246 9.60296 15.7228 9.58256 15.7254 9.56247C15.728 9.54239 15.7349 9.52312 15.7458 9.50601C15.76 9.48287 15.781 9.46457 15.8058 9.45351C15.8315 9.44163 15.8603 9.43771 15.8883 9.44226C15.923 9.4481 15.9561 9.46085 15.9858 9.47976C16.042 9.51726 16.0758 9.55476 16.087 9.59601C16.0939 9.61709 16.0961 9.63939 16.0935 9.6614C16.0909 9.68341 16.0836 9.70459 16.072 9.72351L15.9783 9.67101C15.9895 9.64476 15.9933 9.62601 15.9858 9.60726C15.9783 9.58851 15.9633 9.56976 15.937 9.55476C15.9163 9.53987 15.8913 9.53199 15.8658 9.53226C15.8596 9.53268 15.8537 9.5346 15.8484 9.53788C15.8432 9.54115 15.8389 9.54566 15.8358 9.55101C15.8283 9.56226 15.8283 9.57351 15.832 9.58851C15.8358 9.60351 15.8583 9.63351 15.8958 9.67101C15.9333 9.70851 15.9595 9.73851 15.9708 9.76101C15.9858 9.78453 15.9938 9.81185 15.9938 9.83976C15.9938 9.86767 15.9858 9.89499 15.9708 9.91851C15.9546 9.94467 15.9312 9.96553 15.9033 9.97851C15.8752 9.99146 15.8437 9.99539 15.8133 9.98976C15.7747 9.98324 15.7377 9.96922 15.7045 9.94851C15.6561 9.92267 15.6187 9.87999 15.5995 9.82851C15.585 9.77844 15.5904 9.72472 15.6145 9.67851ZM15.082 9.53601L15.3558 9.08601L15.6858 9.29226L15.6408 9.36726L15.4008 9.21726L15.3408 9.31851L15.5658 9.45726L15.517 9.53226L15.292 9.39351L15.217 9.51726L15.4683 9.66726L15.4233 9.74226L15.0858 9.53601H15.082ZM14.3058 8.89851L14.347 8.82351L14.5495 8.92476L14.4558 9.11226C14.4258 9.11976 14.3883 9.12351 14.3433 9.11976C14.3001 9.115 14.2581 9.10228 14.2195 9.08226C14.1742 9.06015 14.1354 9.02654 14.107 8.98476C14.0812 8.94595 14.0681 8.90009 14.0695 8.85351C14.0714 8.80503 14.0843 8.7576 14.107 8.71476C14.1296 8.66966 14.1631 8.63097 14.2045 8.60226C14.2442 8.57485 14.2913 8.56044 14.3395 8.56101C14.377 8.56101 14.4145 8.57226 14.4595 8.59851C14.5195 8.62476 14.557 8.66226 14.5758 8.70351C14.5953 8.74446 14.5993 8.79109 14.587 8.83476L14.4858 8.80476C14.492 8.77964 14.4893 8.75315 14.4783 8.72976C14.467 8.70726 14.4483 8.69226 14.4183 8.67726C14.4008 8.66728 14.3814 8.66112 14.3614 8.65918C14.3413 8.65724 14.3211 8.65957 14.302 8.66601C14.2645 8.67726 14.2308 8.71101 14.2045 8.76351C14.1783 8.81601 14.167 8.86476 14.1783 8.90601C14.1835 8.92557 14.1929 8.94377 14.2058 8.95931C14.2188 8.97486 14.235 8.98739 14.2533 8.99601C14.272 9.00726 14.2945 9.01476 14.317 9.01476C14.3394 9.01816 14.3622 9.01816 14.3845 9.01476L14.4145 8.95476L14.3058 8.89851ZM10.9233 8.06226L10.9983 7.53726L11.1558 7.56351L11.197 7.93101L11.3433 7.59351L11.5008 7.61601L11.4258 8.13351L11.3245 8.11851L11.3883 7.70976L11.2233 8.10351L11.122 8.08851L11.0808 7.66476L11.0208 8.07726L10.9233 8.06226ZM10.3945 7.99851L10.4433 7.47351L10.8295 7.51101L10.822 7.60101L10.5408 7.57476L10.5295 7.68726L10.792 7.71351L10.7808 7.80351L10.5183 7.77726L10.507 7.91976L10.7995 7.94601L10.792 8.03601L10.3945 7.99851Z" fill="#309E3A"/>
<path d="M8.64323 7.67234C8.64323 7.61609 8.65448 7.57484 8.66948 7.53734C8.68262 7.51067 8.7004 7.48655 8.72198 7.46609C8.74121 7.44669 8.76417 7.43139 8.78948 7.42109C8.82698 7.40984 8.86448 7.40234 8.90198 7.40234C8.98073 7.40234 9.04073 7.43234 9.08948 7.47734C9.11268 7.50601 9.12994 7.53901 9.14024 7.57443C9.15054 7.60984 9.15368 7.64695 9.14948 7.68359C9.14948 7.76609 9.12323 7.83359 9.07448 7.88234C9.04942 7.9055 9.01979 7.92314 8.98749 7.93412C8.95519 7.9451 8.92095 7.94918 8.88698 7.94609C8.85346 7.94643 8.82022 7.93996 8.78928 7.92707C8.75834 7.91418 8.73034 7.89513 8.70698 7.87109C8.66031 7.81586 8.63739 7.74441 8.64323 7.67234Z" fill="#309E3A"/>
<path d="M8.75195 7.67238C8.75195 7.72863 8.7632 7.77363 8.78945 7.80738C8.8157 7.83738 8.84945 7.85613 8.89445 7.85613C8.91392 7.85749 8.93345 7.8545 8.95161 7.84736C8.96978 7.84022 8.98612 7.82913 8.99945 7.81488C9.0257 7.78488 9.03695 7.73988 9.0407 7.67613C9.0407 7.61613 9.0332 7.57113 9.0032 7.54113C8.99099 7.52601 8.97557 7.5138 8.95806 7.50537C8.94055 7.49694 8.92139 7.4925 8.90195 7.49238C8.88223 7.49175 8.8626 7.49545 8.84446 7.50323C8.82632 7.511 8.8101 7.52266 8.79695 7.53738C8.76695 7.56738 8.7557 7.61238 8.75195 7.67238Z" fill="#F7FFFF"/>
<path d="M9.26196 7.94224L9.26946 7.41724H9.49446C9.55071 7.41724 9.58821 7.42474 9.61446 7.43599C9.64071 7.44349 9.65946 7.46224 9.67446 7.48474C9.68946 7.50724 9.69696 7.53724 9.69696 7.57099C9.69726 7.60706 9.68385 7.6419 9.65946 7.66849C9.63174 7.69445 9.59607 7.71031 9.55821 7.71349L9.61446 7.75849C9.62946 7.77349 9.64821 7.80349 9.67071 7.84474L9.73446 7.94974H9.60696L9.53196 7.82974L9.47946 7.75474C9.47037 7.74442 9.45873 7.73666 9.44571 7.73224C9.42866 7.72726 9.41098 7.72474 9.39321 7.72474H9.37071V7.94224H9.26196Z" fill="#309E3A"/>
<path d="M9.37451 7.6422H9.44951C9.50201 7.6422 9.53576 7.6422 9.54701 7.6347C9.55826 7.6347 9.56951 7.62345 9.57701 7.61595C9.58451 7.60845 9.58826 7.5897 9.58826 7.57845C9.58826 7.55595 9.58451 7.54095 9.57326 7.53345C9.56576 7.5222 9.55076 7.5147 9.53576 7.51095H9.46076L9.37451 7.5072V7.63845V7.6422Z" fill="white"/>
<path d="M9.86194 7.44348L10.0569 7.45473C10.0982 7.45473 10.1319 7.45848 10.1544 7.46598C10.1836 7.47657 10.2095 7.49468 10.2294 7.51848C10.251 7.5447 10.2664 7.57547 10.2744 7.60848C10.2857 7.64223 10.2894 7.68348 10.2857 7.73223C10.2857 7.77051 10.2793 7.80851 10.2669 7.84473C10.2519 7.88223 10.2294 7.91223 10.2032 7.93473C10.1813 7.95273 10.1557 7.96555 10.1282 7.97223C10.1057 7.97973 10.0719 7.97973 10.0344 7.97973L9.83569 7.96848L9.86194 7.44348Z" fill="#309E3A"/>
<path d="M9.96309 7.53723L9.94434 7.88598H10.0868C10.1056 7.88598 10.1206 7.87848 10.1318 7.86723C10.1431 7.85598 10.1543 7.84098 10.1618 7.81848C10.1693 7.79598 10.1768 7.76223 10.1768 7.72098L10.1731 7.62723C10.1677 7.60746 10.1574 7.58938 10.1431 7.57473C10.1306 7.56221 10.1151 7.55316 10.0981 7.54848C10.0697 7.54217 10.0409 7.5384 10.0118 7.53723H9.96309Z" fill="white"/>
<path d="M12.4343 8.38109L12.5581 7.87109L12.7231 7.90859L12.8431 7.94609C12.8693 7.96109 12.8918 7.98359 12.9031 8.01734C12.9181 8.04734 12.9181 8.08109 12.9106 8.12234C12.9031 8.15234 12.8918 8.17859 12.8731 8.19734C12.8593 8.21381 12.8421 8.22705 12.8227 8.23612C12.8032 8.2452 12.782 8.24988 12.7606 8.24984C12.7343 8.24984 12.6968 8.24234 12.6481 8.23109L12.5843 8.21234L12.5393 8.40734L12.4343 8.38109Z" fill="#309E3A"/>
<path d="M12.6369 7.98364L12.6069 8.12614L12.6632 8.14114C12.7007 8.14864 12.7307 8.15614 12.7457 8.15239C12.7603 8.15037 12.7739 8.14387 12.7846 8.1338C12.7954 8.12373 12.8027 8.11057 12.8057 8.09614C12.8057 8.07739 12.8057 8.06239 12.7982 8.04739C12.79 8.03215 12.7767 8.02022 12.7607 8.01364L12.6894 7.99489L12.6407 7.98364H12.6369Z" fill="white"/>
<path d="M12.9219 8.52723L13.0981 8.03223L13.3044 8.10723C13.3606 8.12598 13.3944 8.14473 13.4169 8.15973C13.4356 8.17848 13.4506 8.19723 13.4544 8.22723C13.4581 8.25723 13.4619 8.28348 13.4544 8.31348C13.4394 8.35098 13.4169 8.37723 13.3869 8.39598C13.3569 8.41098 13.3194 8.41473 13.2744 8.40723C13.2894 8.42598 13.3044 8.44473 13.3119 8.46723L13.3419 8.56848L13.3644 8.68473L13.2481 8.64348L13.2106 8.50848C13.2038 8.47795 13.195 8.44788 13.1844 8.41848C13.1794 8.40681 13.1717 8.39652 13.1619 8.38848C13.1544 8.37723 13.1394 8.36973 13.1131 8.36223L13.0944 8.35473L13.0194 8.56473L12.9219 8.52723Z" fill="#309E3A"/>
<path d="M13.1244 8.27597L13.1956 8.30222C13.2444 8.32097 13.2744 8.32847 13.2894 8.32847C13.3006 8.32847 13.3119 8.32847 13.3231 8.31722C13.3344 8.30972 13.3419 8.29847 13.3456 8.28347C13.3531 8.26847 13.3531 8.25347 13.3456 8.23847C13.3401 8.22394 13.3294 8.21193 13.3156 8.20472L13.2406 8.17847L13.1656 8.15222L13.1206 8.27597H13.1244Z" fill="white"/>
<path d="M13.5369 8.50853C13.5498 8.46462 13.5715 8.42379 13.6007 8.38853C13.6196 8.3659 13.6425 8.34685 13.6682 8.33228C13.6914 8.31915 13.7168 8.31026 13.7432 8.30603C13.7807 8.30603 13.8182 8.30603 13.8594 8.32103C13.8929 8.32932 13.9243 8.34465 13.9515 8.36598C13.9786 8.38731 14.0009 8.41417 14.0169 8.44478C14.0469 8.50478 14.0469 8.57603 14.0244 8.65853C14.0059 8.72941 13.96 8.79007 13.8969 8.82728C13.8407 8.86103 13.7732 8.86478 13.7019 8.84228C13.6685 8.83377 13.6372 8.81836 13.6101 8.79705C13.583 8.77574 13.5606 8.74899 13.5444 8.71853C13.5294 8.68575 13.521 8.65032 13.5197 8.61428C13.5184 8.57824 13.5243 8.5423 13.5369 8.50853Z" fill="#309E3A"/>
<path d="M13.6418 8.53854C13.6268 8.59479 13.6231 8.64354 13.6418 8.68104C13.6606 8.71854 13.6868 8.74104 13.7281 8.75604C13.7656 8.76729 13.8031 8.76354 13.8406 8.74104C13.8781 8.72229 13.9006 8.68104 13.9193 8.62104C13.9381 8.56479 13.9381 8.51979 13.9193 8.48229C13.9119 8.4645 13.9007 8.44856 13.8865 8.4356C13.8722 8.42263 13.8553 8.41297 13.8368 8.40729C13.8184 8.40092 13.7988 8.39863 13.7794 8.40057C13.7599 8.40251 13.7412 8.40865 13.7243 8.41854C13.6868 8.44104 13.6606 8.47854 13.6418 8.53854Z" fill="white"/>
<path d="M14.5605 9.23978L14.8005 8.77478L14.9993 8.87603C15.0368 8.89401 15.071 8.91808 15.1005 8.94728C15.1193 8.96603 15.1305 8.98853 15.1305 9.01853C15.1305 9.04853 15.1305 9.07478 15.1155 9.10103C15.1011 9.13475 15.0743 9.16161 15.0405 9.17603C15.003 9.18353 14.9655 9.18353 14.9243 9.16853C14.9393 9.19103 14.9468 9.21353 14.9543 9.23228C14.9618 9.25478 14.9655 9.28853 14.9693 9.33728L14.9768 9.45728L14.8643 9.40103L14.8493 9.26228C14.8475 9.23083 14.8438 9.19951 14.838 9.16853C14.8355 9.1545 14.829 9.14149 14.8193 9.13103L14.7743 9.10478L14.7555 9.09353L14.6543 9.28853L14.5605 9.23978Z" fill="#309E3A"/>
<path d="M14.793 9.01856L14.8642 9.05606C14.9092 9.07856 14.9392 9.09356 14.9505 9.09356C14.9617 9.09356 14.9767 9.09356 14.988 9.08606C14.9992 9.08231 15.0067 9.07106 15.0142 9.05606C15.0217 9.04106 15.0255 9.02606 15.0217 9.01106C15.0171 8.99613 15.0079 8.98302 14.9955 8.97356C14.9735 8.96009 14.951 8.94758 14.928 8.93606L14.853 8.89856L14.793 9.01856Z" fill="white"/>
<path d="M16.5032 10.1997C16.5275 10.1612 16.5594 10.128 16.5969 10.1022C16.6222 10.0861 16.6501 10.0747 16.6794 10.0685C16.7067 10.0629 16.7347 10.0629 16.7619 10.0685C16.7994 10.076 16.8332 10.091 16.8669 10.1135C16.8961 10.1317 16.9212 10.1557 16.9406 10.1841C16.9599 10.2126 16.9732 10.2447 16.9794 10.2785C16.9907 10.3422 16.9719 10.4135 16.9269 10.4847C16.8893 10.5467 16.8286 10.5912 16.7582 10.6085C16.7246 10.6158 16.6899 10.6158 16.6563 10.6087C16.6227 10.6016 16.591 10.5875 16.5632 10.5672C16.534 10.5491 16.5089 10.525 16.4896 10.4966C16.4702 10.4682 16.457 10.4361 16.4507 10.4022C16.4394 10.3347 16.4582 10.2672 16.5032 10.1997Z" fill="#309E3A"/>
<path d="M16.5969 10.2598C16.5594 10.3085 16.5482 10.3535 16.5557 10.3948C16.5584 10.4138 16.5652 10.432 16.5755 10.4481C16.5859 10.4643 16.5996 10.4781 16.6157 10.4885C16.6532 10.5148 16.6907 10.5223 16.7282 10.511C16.7657 10.4998 16.8032 10.4735 16.8369 10.421C16.8707 10.3685 16.8857 10.3235 16.8782 10.286C16.8744 10.2485 16.8519 10.2148 16.8182 10.1885C16.7844 10.1623 16.7432 10.1585 16.7057 10.1698C16.6682 10.1773 16.6307 10.2073 16.5932 10.2598H16.5969Z" fill="white"/>
<path d="M11.8418 8.1673L11.928 7.7998L12.198 7.86355L12.1868 7.92355L11.988 7.87855L11.9693 7.96105L12.153 8.00231L12.138 8.06605L11.9543 8.02106L11.9318 8.1223L12.138 8.17106L12.123 8.23105L11.8418 8.1673Z" fill="#309E3A"/>
</svg>
