<svg width="283" height="29" viewBox="0 0 283 29" fill="none" xmlns="http://www.w3.org/2000/svg">
<g filter="url(#filter0_d_219_3)">
<path d="M15.8948 20.6096C12.2948 20.6096 9.39078 20.2816 7.18278 19.6256C4.97478 18.9536 3.35878 18.0176 2.33478 16.8176C1.32678 15.6016 0.822776 14.1936 0.822776 12.5936C0.822776 10.6736 1.07078 8.98564 1.56678 7.52964C2.06278 6.07364 2.72678 4.85764 3.55878 3.88164C4.39078 2.88964 5.31878 2.14564 6.34278 1.64964C7.36678 1.15364 8.40678 0.905637 9.46278 0.905637C10.6948 0.905637 11.9348 1.03364 13.1828 1.28964C14.4308 1.54564 15.5668 1.93764 16.5908 2.46564L15.2468 6.37764C14.2388 5.35364 13.1828 4.55364 12.0788 3.97764C10.9908 3.38564 9.87878 3.08964 8.74278 3.08964C8.19878 3.08964 7.67878 3.32964 7.18278 3.80964C6.68678 4.27364 6.24678 4.88964 5.86278 5.65764C5.47878 6.40964 5.17478 7.24164 4.95078 8.15364C4.74278 9.06564 4.63878 9.95364 4.63878 10.8176C4.63878 11.9376 4.78278 12.9536 5.07078 13.8656C5.35878 14.7616 5.84678 15.5696 6.53478 16.2896C7.23878 16.9936 8.19078 17.6096 9.39078 18.1376C10.6068 18.6496 12.1348 19.0816 13.9748 19.4336L13.4468 13.0736L8.38278 11.8736V11.5856L17.2148 9.42564L16.6148 20.6096H15.8948ZM34.7597 1.16964H35.0717L35.8877 13.6496C35.8877 13.7136 35.8877 13.7856 35.8877 13.8656C35.9037 13.9296 35.9117 14.0016 35.9117 14.0816C35.9117 15.3456 35.5757 16.4736 34.9037 17.4656C34.2317 18.4416 33.3197 19.2096 32.1677 19.7696C31.0317 20.3296 29.7597 20.6096 28.3517 20.6096C26.8477 20.6096 25.5677 20.2896 24.5117 19.6496C23.4717 19.0096 22.6717 18.1616 22.1117 17.1056C21.5677 16.0496 21.2717 14.8976 21.2237 13.6496L20.7437 1.40964H25.1837L24.4637 13.4576C24.4637 13.5536 24.4557 13.6496 24.4397 13.7456C24.4397 13.8256 24.4397 13.9056 24.4397 13.9856C24.4397 15.4736 24.7997 16.6576 25.5197 17.5376C26.2397 18.4016 27.1837 18.8336 28.3517 18.8336C28.9917 18.8336 29.5757 18.6016 30.1037 18.1376C30.6477 17.6576 31.1117 17.0016 31.4957 16.1696C31.8957 15.3216 32.1997 14.3536 32.4077 13.2656L34.7597 1.16964ZM40.918 20.1296L40.246 1.40964H44.758L44.086 20.1296H40.918ZM49.7517 20.4416L49.0797 1.40964H53.5197L52.8477 16.6016L61.4637 17.8976L61.4397 18.2096L49.7517 20.4416ZM75.6906 20.1296L75.3546 11.0096L68.3466 11.9936L68.0586 20.1296H64.9626L64.2906 1.40964H68.7306L68.4666 8.82564L75.3306 10.0496L75.0186 1.40964H79.5066L78.8346 20.1296H75.6906ZM84.6083 20.3696L83.7203 1.40964H88.0883L88.0403 3.23364L96.6803 1.16964V5.05764L88.0163 4.21764L87.8723 10.2896L95.4563 8.51364V12.3296L87.8483 11.2496L87.7043 17.0336L97.1603 18.0416V18.2816L84.6083 20.3696ZM114.787 20.4416L104.899 11.6336L104.923 11.2976C105.867 11.1056 106.715 10.7696 107.467 10.2896C108.235 9.79364 108.875 9.23364 109.387 8.60964C109.915 7.96964 110.283 7.33764 110.491 6.71364C110.635 6.29764 110.707 5.90564 110.707 5.53764C110.707 4.91364 110.491 4.40164 110.059 4.00164C109.627 3.60164 108.963 3.40164 108.067 3.40164C106.963 3.40164 105.803 3.55364 104.587 3.85764L104.227 20.1296H101.155L100.267 1.40964H104.635L104.611 2.72964C105.363 2.31364 106.123 1.99364 106.891 1.76964C107.675 1.52964 108.427 1.40964 109.147 1.40964C110.491 1.40964 111.563 1.63364 112.363 2.08164C113.163 2.51364 113.739 3.06564 114.091 3.73764C114.459 4.39364 114.643 5.07364 114.643 5.77764C114.643 6.25764 114.571 6.70564 114.427 7.12164C114.203 7.80964 113.811 8.43364 113.251 8.99364C112.707 9.53764 112.075 9.99364 111.355 10.3616C110.651 10.7296 109.955 11.0016 109.267 11.1776L115.099 20.4656L114.787 20.4416ZM133.418 20.1296L132.722 6.08964L127.37 18.3056H127.202L121.826 6.08964L119.642 20.4656H119.282L117.962 1.40964H122.378L128.21 11.1056L132.674 1.40964H136.586L136.226 20.1296H133.418ZM141.679 20.3696L140.791 1.40964H145.159L145.111 3.23364L153.751 1.16964V5.05764L145.087 4.21764L144.943 10.2896L152.527 8.51364V12.3296L144.919 11.2496L144.775 17.0336L154.231 18.0416V18.2816L141.679 20.3696ZM181.235 20.4416L174.779 8.41764L169.643 20.4416H169.379L163.835 1.88964L168.179 0.929638L170.459 13.3376L173.795 3.90564L177.083 3.37764L180.251 12.7136L186.035 1.19364H186.395L181.427 20.4416H181.235ZM202.971 1.16964H203.283L204.099 13.6496C204.099 13.7136 204.099 13.7856 204.099 13.8656C204.115 13.9296 204.123 14.0016 204.123 14.0816C204.123 15.3456 203.787 16.4736 203.115 17.4656C202.443 18.4416 201.531 19.2096 200.379 19.7696C199.243 20.3296 197.971 20.6096 196.563 20.6096C195.059 20.6096 193.779 20.2896 192.723 19.6496C191.683 19.0096 190.883 18.1616 190.323 17.1056C189.779 16.0496 189.483 14.8976 189.435 13.6496L188.955 1.40964H193.395L192.675 13.4576C192.675 13.5536 192.667 13.6496 192.651 13.7456C192.651 13.8256 192.651 13.9056 192.651 13.9856C192.651 15.4736 193.011 16.6576 193.731 17.5376C194.451 18.4016 195.395 18.8336 196.563 18.8336C197.203 18.8336 197.787 18.6016 198.315 18.1376C198.859 17.6576 199.323 17.0016 199.707 16.1696C200.107 15.3216 200.411 14.3536 200.619 13.2656L202.971 1.16964ZM221.897 15.1856C221.801 16.5616 221.417 17.6496 220.745 18.4496C220.073 19.2336 219.225 19.7936 218.201 20.1296C217.193 20.4496 216.105 20.6096 214.937 20.6096C214.105 20.6096 213.201 20.3936 212.225 19.9616C211.265 19.5296 210.329 18.8816 209.417 18.0176C208.505 17.1536 207.705 16.0656 207.017 14.7536L207.185 14.5856C207.825 15.0816 208.505 15.5296 209.225 15.9296C209.961 16.3296 210.689 16.6736 211.409 16.9616C212.129 17.2336 212.793 17.4416 213.401 17.5856C214.025 17.7296 214.529 17.8016 214.913 17.8016C215.665 17.8016 216.297 17.6256 216.809 17.2736C217.337 16.9216 217.641 16.3376 217.721 15.5216V15.4496C217.721 15.0976 217.489 14.7296 217.025 14.3456C216.561 13.9456 215.953 13.5216 215.201 13.0736C214.465 12.6256 213.681 12.1536 212.849 11.6576C212.033 11.1616 211.257 10.6496 210.521 10.1216C209.785 9.57764 209.177 9.01764 208.697 8.44164C208.233 7.86564 208.001 7.26564 208.001 6.64164C208.001 6.56164 208.001 6.49764 208.001 6.44964C208.001 6.38564 208.009 6.32164 208.025 6.25764C208.217 5.18564 208.641 4.24964 209.297 3.44964C209.969 2.64964 210.769 2.02564 211.697 1.57764C212.641 1.12964 213.617 0.905637 214.625 0.905637C215.649 0.905637 216.745 1.06564 217.913 1.38564C219.097 1.68964 220.305 2.12964 221.537 2.70564L220.193 6.61764C218.945 5.40164 217.873 4.50564 216.977 3.92964C216.081 3.35364 215.233 3.06564 214.433 3.06564C213.569 3.06564 212.905 3.28164 212.441 3.71364C211.993 4.12964 211.737 4.83364 211.673 5.82564V5.89764C211.673 6.26564 211.857 6.63364 212.225 7.00164C212.593 7.36964 213.081 7.74564 213.689 8.12964C214.297 8.49764 214.961 8.88164 215.681 9.28164C216.417 9.66564 217.145 10.0736 217.865 10.5056C218.601 10.9216 219.273 11.3696 219.881 11.8496C220.489 12.3136 220.977 12.8096 221.345 13.3376C221.713 13.8496 221.897 14.4016 221.897 14.9936V15.1856ZM229.453 20.1296L228.805 4.16964L223.813 4.81764V1.16964L238.669 2.53764V2.87364L233.221 3.59364L232.573 20.1296H229.453ZM255.248 20.4416L245.36 11.6336L245.384 11.2976C246.328 11.1056 247.176 10.7696 247.928 10.2896C248.696 9.79364 249.336 9.23364 249.848 8.60964C250.376 7.96964 250.744 7.33764 250.952 6.71364C251.096 6.29764 251.168 5.90564 251.168 5.53764C251.168 4.91364 250.952 4.40164 250.52 4.00164C250.088 3.60164 249.424 3.40164 248.528 3.40164C247.424 3.40164 246.264 3.55364 245.048 3.85764L244.688 20.1296H241.616L240.728 1.40964H245.096L245.072 2.72964C245.824 2.31364 246.584 1.99364 247.352 1.76964C248.136 1.52964 248.888 1.40964 249.608 1.40964C250.952 1.40964 252.024 1.63364 252.824 2.08164C253.624 2.51364 254.2 3.06564 254.552 3.73764C254.92 4.39364 255.104 5.07364 255.104 5.77764C255.104 6.25764 255.032 6.70564 254.888 7.12164C254.664 7.80964 254.272 8.43364 253.712 8.99364C253.168 9.53764 252.536 9.99364 251.816 10.3616C251.112 10.7296 250.416 11.0016 249.728 11.1776L255.56 20.4656L255.248 20.4416ZM266.127 20.6096C265.215 20.6096 264.255 20.3856 263.247 19.9376C262.255 19.4736 261.319 18.8096 260.439 17.9456C259.559 17.0816 258.847 16.0416 258.303 14.8256C257.759 13.6096 257.487 12.2416 257.487 10.7216C257.487 9.53764 257.663 8.44164 258.015 7.43364C258.383 6.40964 258.871 5.49764 259.479 4.69764C260.087 3.89764 260.767 3.21764 261.519 2.65764C262.271 2.08164 263.039 1.64964 263.823 1.36164C264.623 1.05764 265.391 0.905637 266.127 0.905637C266.847 0.905637 267.599 1.05764 268.383 1.36164C269.183 1.66564 269.951 2.10564 270.687 2.68164C271.439 3.24164 272.119 3.92164 272.727 4.72164C273.335 5.52164 273.815 6.42564 274.167 7.43364C274.519 8.44164 274.695 9.53764 274.695 10.7216C274.695 12.2416 274.423 13.6096 273.879 14.8256C273.335 16.0416 272.631 17.0816 271.767 17.9456C270.903 18.8096 269.975 19.4736 268.983 19.9376C267.991 20.3856 267.039 20.6096 266.127 20.6096ZM267.087 18.5456C267.839 18.5456 268.503 18.2976 269.079 17.8016C269.655 17.3056 270.103 16.6176 270.423 15.7376C270.759 14.8416 270.927 13.8096 270.927 12.6416C270.927 11.0256 270.743 9.61764 270.375 8.41764C270.007 7.20164 269.527 6.19364 268.935 5.39364C268.343 4.59364 267.711 3.99364 267.039 3.59364C266.383 3.19364 265.759 2.99364 265.167 2.99364C264.431 2.99364 263.767 3.24164 263.175 3.73764C262.583 4.21764 262.111 4.88964 261.759 5.75364C261.423 6.61764 261.255 7.63364 261.255 8.80164C261.255 10.5136 261.439 11.9856 261.807 13.2176C262.191 14.4496 262.679 15.4576 263.271 16.2416C263.879 17.0256 264.519 17.6096 265.191 17.9936C265.863 18.3616 266.495 18.5456 267.087 18.5456Z" fill="white"/>
</g>
<defs>
<filter id="filter0_d_219_3" x="0.822754" y="0.905518" width="281.872" height="27.7041" filterUnits="userSpaceOnUse" color-interpolation-filters="sRGB">
<feFlood flood-opacity="0" result="BackgroundImageFix"/>
<feColorMatrix in="SourceAlpha" type="matrix" values="0 0 0 0 0 0 0 0 0 0 0 0 0 0 0 0 0 0 127 0" result="hardAlpha"/>
<feOffset dx="4" dy="4"/>
<feGaussianBlur stdDeviation="2"/>
<feComposite in2="hardAlpha" operator="out"/>
<feColorMatrix type="matrix" values="0 0 0 0 0.470588 0 0 0 0 0.541176 0 0 0 0 0.631373 0 0 0 0.5 0"/>
<feBlend mode="normal" in2="BackgroundImageFix" result="effect1_dropShadow_219_3"/>
<feBlend mode="normal" in="SourceGraphic" in2="effect1_dropShadow_219_3" result="shape"/>
</filter>
</defs>
</svg>
