<svg width="214" height="24" viewBox="0 0 214 24" fill="none" xmlns="http://www.w3.org/2000/svg">
<g filter="url(#filter0_d_219_3)">
<path d="M11.5556 15.0197C8.85564 15.0197 6.67763 14.7737 5.02163 14.2817C3.36563 13.7777 2.15363 13.0757 1.38563 12.1757C0.629634 11.2637 0.251634 10.2077 0.251634 9.00767C0.251634 7.56767 0.437634 6.30167 0.809634 5.20967C1.18163 4.11767 1.67963 3.20567 2.30363 2.47367C2.92763 1.72967 3.62363 1.17167 4.39163 0.799667C5.15963 0.427667 5.93963 0.241667 6.73163 0.241667C7.65563 0.241667 8.58563 0.337667 9.52163 0.529667C10.4576 0.721667 11.3096 1.01567 12.0776 1.41167L11.0696 4.34567C10.3136 3.57767 9.52163 2.97767 8.69363 2.54567C7.87763 2.10167 7.04363 1.87967 6.19163 1.87967C5.78363 1.87967 5.39363 2.05967 5.02163 2.41967C4.64963 2.76767 4.31963 3.22967 4.03163 3.80567C3.74363 4.36967 3.51563 4.99367 3.34763 5.67767C3.19163 6.36167 3.11363 7.02767 3.11363 7.67567C3.11363 8.51567 3.22163 9.27767 3.43763 9.96167C3.65363 10.6337 4.01963 11.2397 4.53563 11.7797C5.06363 12.3077 5.77763 12.7697 6.67763 13.1657C7.58963 13.5497 8.73563 13.8737 10.1156 14.1377L9.71963 9.36767L5.92163 8.46767V8.25167L12.5456 6.63167L12.0956 15.0197H11.5556ZM25.7043 0.439668H25.9383L26.5503 9.79967C26.5503 9.84767 26.5503 9.90167 26.5503 9.96167C26.5623 10.0097 26.5683 10.0637 26.5683 10.1237C26.5683 11.0717 26.3163 11.9177 25.8123 12.6617C25.3083 13.3937 24.6243 13.9697 23.7603 14.3897C22.9083 14.8097 21.9543 15.0197 20.8983 15.0197C19.7703 15.0197 18.8103 14.7797 18.0183 14.2997C17.2383 13.8197 16.6383 13.1837 16.2183 12.3917C15.8103 11.5997 15.5883 10.7357 15.5523 9.79967L15.1923 0.619667H18.5223L17.9823 9.65567C17.9823 9.72767 17.9763 9.79967 17.9643 9.87167C17.9643 9.93167 17.9643 9.99167 17.9643 10.0517C17.9643 11.1677 18.2343 12.0557 18.7743 12.7157C19.3143 13.3637 20.0223 13.6877 20.8983 13.6877C21.3783 13.6877 21.8163 13.5137 22.2123 13.1657C22.6203 12.8057 22.9683 12.3137 23.2563 11.6897C23.5563 11.0537 23.7843 10.3277 23.9403 9.51167L25.7043 0.439668ZM30.323 14.6597L29.819 0.619667H33.203L32.699 14.6597H30.323ZM36.9483 14.8937L36.4443 0.619667H39.7743L39.2703 12.0137L45.7323 12.9857L45.7143 13.2197L36.9483 14.8937ZM56.4025 14.6597L56.1505 7.81967L50.8945 8.55767L50.6785 14.6597H48.3565L47.8525 0.619667H51.1825L50.9845 6.18167L56.1325 7.09967L55.8985 0.619667H59.2645L58.7605 14.6597H56.4025ZM63.0908 14.8397L62.4248 0.619667H65.7008L65.6648 1.98767L72.1448 0.439668V3.35567L65.6468 2.72567L65.5388 7.27967L71.2268 5.94767V8.80967L65.5208 7.99967L65.4128 12.3377L72.5048 13.0937V13.2737L63.0908 14.8397ZM85.7249 14.8937L78.3089 8.28767L78.3269 8.03567C79.0349 7.89167 79.6709 7.63967 80.2349 7.27967C80.8109 6.90767 81.2909 6.48767 81.6749 6.01967C82.0709 5.53967 82.3469 5.06567 82.5029 4.59767C82.6109 4.28567 82.6649 3.99167 82.6649 3.71567C82.6649 3.24767 82.5029 2.86367 82.1789 2.56367C81.8549 2.26367 81.3569 2.11367 80.6849 2.11367C79.8569 2.11367 78.9869 2.22767 78.0749 2.45567L77.8049 14.6597H75.5009L74.8349 0.619667H78.1109L78.0929 1.60967C78.6569 1.29767 79.2269 1.05767 79.8029 0.889667C80.3909 0.709667 80.9549 0.619667 81.4949 0.619667C82.5029 0.619667 83.3069 0.787667 83.9069 1.12367C84.5069 1.44767 84.9389 1.86167 85.2029 2.36567C85.4789 2.85767 85.6169 3.36767 85.6169 3.89567C85.6169 4.25567 85.5629 4.59167 85.4549 4.90367C85.2869 5.41967 84.9929 5.88767 84.5729 6.30767C84.1649 6.71567 83.6909 7.05767 83.1509 7.33367C82.6229 7.60967 82.1009 7.81367 81.5849 7.94567L85.9589 14.9117L85.7249 14.8937ZM99.698 14.6597L99.176 4.12967L95.162 13.2917H95.036L91.004 4.12967L89.366 14.9117H89.096L88.106 0.619667H91.418L95.792 7.89167L99.14 0.619667H102.074L101.804 14.6597H99.698ZM105.893 14.8397L105.227 0.619667H108.503L108.467 1.98767L114.947 0.439668V3.35567L108.449 2.72567L108.341 7.27967L114.029 5.94767V8.80967L108.323 7.99967L108.215 12.3377L115.307 13.0937V13.2737L105.893 14.8397ZM135.561 14.8937L130.719 5.87567L126.867 14.8937H126.669L122.511 0.979667L125.769 0.259668L127.479 9.56567L129.981 2.49167L132.447 2.09567L134.823 9.09767L139.161 0.457667H139.431L135.705 14.8937H135.561ZM151.863 0.439668H152.097L152.709 9.79967C152.709 9.84767 152.709 9.90167 152.709 9.96167C152.721 10.0097 152.727 10.0637 152.727 10.1237C152.727 11.0717 152.475 11.9177 151.971 12.6617C151.467 13.3937 150.783 13.9697 149.919 14.3897C149.067 14.8097 148.113 15.0197 147.057 15.0197C145.929 15.0197 144.969 14.7797 144.177 14.2997C143.397 13.8197 142.797 13.1837 142.377 12.3917C141.969 11.5997 141.747 10.7357 141.711 9.79967L141.351 0.619667H144.681L144.141 9.65567C144.141 9.72767 144.135 9.79967 144.123 9.87167C144.123 9.93167 144.123 9.99167 144.123 10.0517C144.123 11.1677 144.393 12.0557 144.933 12.7157C145.473 13.3637 146.181 13.6877 147.057 13.6877C147.537 13.6877 147.975 13.5137 148.371 13.1657C148.779 12.8057 149.127 12.3137 149.415 11.6897C149.715 11.0537 149.943 10.3277 150.099 9.51167L151.863 0.439668ZM166.057 10.9517C165.985 11.9837 165.697 12.7997 165.193 13.3997C164.689 13.9877 164.053 14.4077 163.285 14.6597C162.529 14.8997 161.713 15.0197 160.837 15.0197C160.213 15.0197 159.535 14.8577 158.803 14.5337C158.083 14.2097 157.381 13.7237 156.697 13.0757C156.013 12.4277 155.413 11.6117 154.897 10.6277L155.023 10.5017C155.503 10.8737 156.013 11.2097 156.553 11.5097C157.105 11.8097 157.651 12.0677 158.191 12.2837C158.731 12.4877 159.229 12.6437 159.685 12.7517C160.153 12.8597 160.531 12.9137 160.819 12.9137C161.383 12.9137 161.857 12.7817 162.241 12.5177C162.637 12.2537 162.865 11.8157 162.925 11.2037V11.1497C162.925 10.8857 162.751 10.6097 162.403 10.3217C162.055 10.0217 161.599 9.70367 161.035 9.36767C160.483 9.03167 159.895 8.67767 159.271 8.30567C158.659 7.93367 158.077 7.54967 157.525 7.15367C156.973 6.74567 156.517 6.32567 156.157 5.89367C155.809 5.46167 155.635 5.01167 155.635 4.54367C155.635 4.48367 155.635 4.43567 155.635 4.39967C155.635 4.35167 155.641 4.30367 155.653 4.25567C155.797 3.45167 156.115 2.74967 156.607 2.14967C157.111 1.54967 157.711 1.08167 158.407 0.745667C159.115 0.409667 159.847 0.241667 160.603 0.241667C161.371 0.241667 162.193 0.361667 163.069 0.601668C163.957 0.829668 164.863 1.15967 165.787 1.59167L164.779 4.52567C163.843 3.61367 163.039 2.94167 162.367 2.50967C161.695 2.07767 161.059 1.86167 160.459 1.86167C159.811 1.86167 159.313 2.02367 158.965 2.34767C158.629 2.65967 158.437 3.18767 158.389 3.93167V3.98567C158.389 4.26167 158.527 4.53767 158.803 4.81367C159.079 5.08967 159.445 5.37167 159.901 5.65967C160.357 5.93567 160.855 6.22367 161.395 6.52367C161.947 6.81167 162.493 7.11767 163.033 7.44167C163.585 7.75367 164.089 8.08967 164.545 8.44967C165.001 8.79767 165.367 9.16967 165.643 9.56567C165.919 9.94967 166.057 10.3637 166.057 10.8077V10.9517ZM171.724 14.6597L171.238 2.68967L167.494 3.17567V0.439668L178.636 1.46567V1.71767L174.55 2.25767L174.064 14.6597H171.724ZM191.071 14.8937L183.655 8.28767L183.673 8.03567C184.381 7.89167 185.017 7.63967 185.581 7.27967C186.157 6.90767 186.637 6.48767 187.021 6.01967C187.417 5.53967 187.693 5.06567 187.849 4.59767C187.957 4.28567 188.011 3.99167 188.011 3.71567C188.011 3.24767 187.849 2.86367 187.525 2.56367C187.201 2.26367 186.703 2.11367 186.031 2.11367C185.203 2.11367 184.333 2.22767 183.421 2.45567L183.151 14.6597H180.847L180.181 0.619667H183.457L183.439 1.60967C184.003 1.29767 184.573 1.05767 185.149 0.889667C185.737 0.709667 186.301 0.619667 186.841 0.619667C187.849 0.619667 188.653 0.787667 189.253 1.12367C189.853 1.44767 190.285 1.86167 190.549 2.36567C190.825 2.85767 190.963 3.36767 190.963 3.89567C190.963 4.25567 190.909 4.59167 190.801 4.90367C190.633 5.41967 190.339 5.88767 189.919 6.30767C189.511 6.71567 189.037 7.05767 188.497 7.33367C187.969 7.60967 187.447 7.81367 186.931 7.94567L191.305 14.9117L191.071 14.8937ZM199.23 15.0197C198.546 15.0197 197.826 14.8517 197.07 14.5157C196.326 14.1677 195.624 13.6697 194.964 13.0217C194.304 12.3737 193.77 11.5937 193.362 10.6817C192.954 9.76967 192.75 8.74367 192.75 7.60367C192.75 6.71567 192.882 5.89367 193.146 5.13767C193.422 4.36967 193.788 3.68567 194.244 3.08567C194.7 2.48567 195.21 1.97567 195.774 1.55567C196.338 1.12367 196.914 0.799667 197.502 0.583667C198.102 0.355667 198.678 0.241667 199.23 0.241667C199.77 0.241667 200.334 0.355667 200.922 0.583667C201.522 0.811667 202.098 1.14167 202.65 1.57367C203.214 1.99367 203.724 2.50367 204.18 3.10367C204.636 3.70367 204.996 4.38167 205.26 5.13767C205.524 5.89367 205.656 6.71567 205.656 7.60367C205.656 8.74367 205.452 9.76967 205.044 10.6817C204.636 11.5937 204.108 12.3737 203.46 13.0217C202.812 13.6697 202.116 14.1677 201.372 14.5157C200.628 14.8517 199.914 15.0197 199.23 15.0197ZM199.95 13.4717C200.514 13.4717 201.012 13.2857 201.444 12.9137C201.876 12.5417 202.212 12.0257 202.452 11.3657C202.704 10.6937 202.83 9.91967 202.83 9.04367C202.83 7.83167 202.692 6.77567 202.416 5.87567C202.14 4.96367 201.78 4.20767 201.336 3.60767C200.892 3.00767 200.418 2.55767 199.914 2.25767C199.422 1.95767 198.954 1.80767 198.51 1.80767C197.958 1.80767 197.46 1.99367 197.016 2.36567C196.572 2.72567 196.218 3.22967 195.954 3.87767C195.702 4.52567 195.576 5.28767 195.576 6.16367C195.576 7.44767 195.714 8.55167 195.99 9.47567C196.278 10.3997 196.644 11.1557 197.088 11.7437C197.544 12.3317 198.024 12.7697 198.528 13.0577C199.032 13.3337 199.506 13.4717 199.95 13.4717Z" fill="white"/>
</g>
<defs>
<filter id="filter0_d_219_3" x="0.251587" y="0.241699" width="213.404" height="22.7781" filterUnits="userSpaceOnUse" color-interpolation-filters="sRGB">
<feFlood flood-opacity="0" result="BackgroundImageFix"/>
<feColorMatrix in="SourceAlpha" type="matrix" values="0 0 0 0 0 0 0 0 0 0 0 0 0 0 0 0 0 0 127 0" result="hardAlpha"/>
<feOffset dx="4" dy="4"/>
<feGaussianBlur stdDeviation="2"/>
<feComposite in2="hardAlpha" operator="out"/>
<feColorMatrix type="matrix" values="0 0 0 0 0.470588 0 0 0 0 0.541176 0 0 0 0 0.631373 0 0 0 0.5 0"/>
<feBlend mode="normal" in2="BackgroundImageFix" result="effect1_dropShadow_219_3"/>
<feBlend mode="normal" in="SourceGraphic" in2="effect1_dropShadow_219_3" result="shape"/>
</filter>
</defs>
</svg>
