<svg width="25" height="19" viewBox="0 0 25 19" fill="none" xmlns="http://www.w3.org/2000/svg">
<g clip-path="url(#clip0_7_313)">
<path fill-rule="evenodd" clip-rule="evenodd" d="M0.0148926 0.710449H34.2149V2.09795H0.0148926V0.710449ZM0.0148926 3.4817H34.2149V4.8692H0.0148926V3.4817ZM0.0148926 6.2492H34.2149V7.6367H0.0148926V6.2492ZM0.0148926 9.0167H34.2149V10.4042H0.0148926V9.0167ZM0.0148926 11.7917H34.2149V13.1717H0.0148926V11.7917ZM0.0148926 14.5555H34.2149V15.943H0.0148926V14.5555ZM0.0148926 17.3229H34.2149V18.7104H0.0148926V17.3229Z" fill="#BD3D44"/>
<path fill-rule="evenodd" clip-rule="evenodd" d="M0.0148926 2.0979H34.2149V3.48165H0.0148926V2.0979ZM0.0148926 4.8654H34.2149V6.24915H0.0148926V4.8654ZM0.0148926 7.6329H34.2149V9.0204H0.0148926V7.6329ZM0.0148926 10.4042H34.2149V11.7917H0.0148926V10.4042ZM0.0148926 13.1717H34.2149V14.5592H0.0148926V13.1717ZM0.0148926 15.9392H34.2149V17.3267H0.0148926V15.9392Z" fill="white"/>
<path fill-rule="evenodd" clip-rule="evenodd" d="M0.0148926 0.710449H13.6949V10.4042H0.0148926V0.710449Z" fill="#192F5D"/>
<path fill-rule="evenodd" clip-rule="evenodd" d="M1.15497 1.12292L1.28247 1.50917H1.67997L1.35747 1.74542L1.48122 2.13167L1.15497 1.89167L0.832471 2.12792L0.952471 1.74542L0.626221 1.50917H1.03497L1.15497 1.12292ZM3.43497 1.12292L3.55872 1.50917H3.96372L3.63747 1.74542L3.75747 2.13167L3.43497 1.89167L3.10872 2.12792L3.23247 1.74542L2.90997 1.50917H3.30747L3.43497 1.12292ZM5.71497 1.12292L5.83872 1.50917H6.23997L5.91747 1.74542L6.04122 2.13167L5.71497 1.89167L5.38872 2.12792L5.51247 1.74542L5.18622 1.50917H5.59122L5.71497 1.12292ZM7.99497 1.12292L8.11872 1.50917H8.52372L8.19747 1.74542L8.32122 2.13167L7.99497 1.89167L7.66872 2.12792L7.79622 1.74542L7.46622 1.50917H7.86747L7.99497 1.12292ZM10.275 1.12292L10.3987 1.50917H10.8L10.4775 1.74542L10.6012 2.13167L10.275 1.89167L9.94872 2.12792L10.0725 1.74542L9.74997 1.50917H10.1512L10.275 1.12292ZM12.555 1.12292L12.6787 1.50917H13.0837L12.7537 1.74542L12.8812 2.13167L12.555 1.89167L12.2287 2.12792L12.3562 1.74542L12.0262 1.50917H12.4312L12.555 1.12292ZM2.29497 2.09792L2.41872 2.48042H2.82747L2.50122 2.71292L2.62122 3.09917L2.30247 2.86292L1.97622 3.09917L2.09247 2.71292L1.77747 2.48042H2.17872L2.29497 2.09792ZM4.57497 2.09792L4.70247 2.48042H5.10372L4.77372 2.71292L4.90122 3.09917L4.57497 2.86292L4.24872 3.09917L4.37247 2.71292L4.04622 2.48042H4.45122L4.57497 2.09792ZM6.85497 2.09792L6.97872 2.48042H7.38372L7.05747 2.71292L7.18122 3.09917L6.85497 2.86292L6.52872 3.09917L6.65247 2.71292L6.32997 2.48042H6.72747L6.85497 2.09792ZM9.13497 2.09792L9.26247 2.48042H9.66372L9.33372 2.71292L9.46122 3.09917L9.13497 2.86292L8.81247 3.09917L8.93247 2.71292L8.60622 2.48042H9.01497L9.13497 2.09792ZM11.415 2.09792L11.5387 2.48042H11.9437L11.6175 2.71292L11.7412 3.09917L11.415 2.86292L11.0887 3.09917L11.2125 2.71292L10.89 2.48042H11.2912L11.415 2.09792ZM1.15497 3.05792L1.28247 3.44792H1.67997L1.35747 3.68418L1.48122 4.06667L1.15497 3.83042L0.832471 4.06667L0.952471 3.68418L0.626221 3.44792H1.03497L1.15497 3.05792ZM3.43497 3.05792L3.55872 3.44792H3.96372L3.63747 3.68418L3.75747 4.06667L3.43497 3.83042L3.10872 4.06667L3.23247 3.68042L2.90997 3.44417H3.30747L3.43497 3.05792ZM5.71497 3.05792L5.83872 3.44417H6.23997L5.91747 3.68042L6.04122 4.06292L5.71497 3.82667L5.38872 4.06292L5.51247 3.67667L5.18622 3.44043H5.59122L5.71497 3.05792ZM7.99497 3.05792L8.11872 3.44417H8.52372L8.19747 3.68042L8.32122 4.06292L7.99497 3.82667L7.66872 4.06292L7.79622 3.67667L7.46622 3.44043H7.86747L7.99497 3.05792ZM10.275 3.05792L10.3987 3.44417H10.8L10.4775 3.68042L10.6012 4.06292L10.275 3.82667L9.94872 4.06292L10.0725 3.67667L9.74997 3.44043H10.1512L10.275 3.05792ZM12.555 3.05792L12.6787 3.44417H13.0837L12.7537 3.68042L12.8812 4.06292L12.555 3.82667L12.2287 4.06292L12.3562 3.67667L12.0262 3.44043H12.4312L12.555 3.05792ZM2.29497 4.03292L2.41872 4.41543H2.82747L2.50122 4.65167L2.62497 5.03793L2.29872 4.79792L1.97247 5.03418L2.09622 4.65167L1.77372 4.41543H2.17497L2.29497 4.03292ZM4.57497 4.03292L4.70247 4.41543H5.10372L4.77372 4.65167L4.90122 5.03793L4.57497 4.79792L4.24872 5.03418L4.37247 4.65167L4.04622 4.41543H4.45122L4.57497 4.03292ZM6.85497 4.03292L6.97872 4.41543H7.38372L7.05747 4.65167L7.18122 5.03793L6.85497 4.79792L6.52872 5.03418L6.65247 4.65167L6.32997 4.41543H6.72747L6.85497 4.03292ZM9.13497 4.03292L9.26247 4.41543H9.66372L9.33747 4.65167L9.46122 5.03793L9.13497 4.79792L8.81247 5.03418L8.93247 4.65167L8.60622 4.41543H9.01497L9.13497 4.03292ZM11.415 4.03292L11.5387 4.41543H11.9437L11.6175 4.65167L11.7412 5.03793L11.415 4.79792L11.0887 5.03418L11.2125 4.65167L10.89 4.41543H11.2912L11.415 4.03292ZM1.15497 5.00417L1.28247 5.38667H1.67997L1.35747 5.62292L1.48122 6.00918L1.15497 5.76917L0.832471 6.00542L0.952471 5.62292L0.626221 5.38667H1.03497L1.15497 5.00417ZM3.43497 5.00417L3.55872 5.38667H3.96372L3.63747 5.62292L3.75747 6.00542L3.43497 5.76917L3.10872 6.00542L3.23247 5.62292L2.90997 5.38667H3.30747L3.43497 5.00417ZM5.71497 5.00417L5.83872 5.38667H6.23997L5.91747 5.62292L6.04122 6.00918L5.71497 5.76917L5.38872 6.00542L5.51247 5.62292L5.18622 5.38667H5.59122L5.71497 5.00417ZM7.99497 5.00417L8.11872 5.38667H8.52372L8.19747 5.62292L8.32122 6.00918L7.99497 5.76917L7.66872 6.00542L7.79622 5.62292L7.46622 5.38667H7.86747L7.99497 5.00417ZM10.275 5.00417L10.3987 5.38667H10.8L10.4775 5.62292L10.6012 6.00918L10.275 5.76917L9.94872 6.00542L10.0725 5.62292L9.74997 5.38667H10.1512L10.275 5.00417ZM12.555 5.00417L12.6787 5.38667H13.0837L12.7537 5.62292L12.8812 6.00918L12.555 5.76917L12.2287 6.00542L12.3525 5.62292L12.0225 5.38667H12.4275L12.555 5.00417ZM2.29497 5.97168L2.41872 6.35793H2.82747L2.50122 6.59043L2.62497 6.97668L2.29872 6.73667L1.97247 6.97668L2.09622 6.59043L1.77372 6.35418H2.17497L2.29497 5.97168ZM4.57497 5.97168L4.70247 6.35793H5.10372L4.77372 6.59043L4.90122 6.97668L4.57497 6.73667L4.24872 6.97668L4.37247 6.59043L4.04622 6.35418H4.45122L4.57497 5.97168ZM6.85497 5.97168L6.97872 6.35793H7.38372L7.05747 6.59043L7.18122 6.97668L6.85497 6.73667L6.52872 6.97668L6.65247 6.59043L6.32997 6.35418H6.72747L6.85497 5.97168ZM9.13497 5.97168L9.26247 6.35793H9.66372L9.33747 6.59043L9.46122 6.97668L9.13497 6.73667L8.81247 6.97668L8.93247 6.59043L8.60622 6.35418H9.01497L9.13497 5.97168ZM11.415 5.97168L11.5387 6.35793H11.9437L11.6175 6.59043L11.7412 6.97668L11.415 6.73667L11.0887 6.97668L11.2125 6.59043L10.89 6.35418H11.2912L11.415 5.97168ZM1.15497 6.93918L1.28247 7.32542H1.67997L1.35747 7.56167L1.48122 7.94043L1.15497 7.70793L0.832471 7.94043L0.952471 7.55793L0.626221 7.32168H1.03497L1.15497 6.93918ZM3.43497 6.93918L3.55872 7.32542H3.96372L3.63747 7.56167L3.76122 7.94043L3.43497 7.70793L3.10872 7.94043L3.23622 7.55793L2.90997 7.32168H3.30747L3.43497 6.93918ZM5.71497 6.93918L5.83872 7.32542H6.23997L5.91747 7.56167L6.04122 7.94043L5.71497 7.70793L5.38872 7.94043L5.51247 7.55793L5.18622 7.32168H5.59122L5.71497 6.93918ZM7.99497 6.93918L8.11872 7.32542H8.52372L8.19747 7.56167L8.32122 7.94043L7.99497 7.70793L7.66872 7.94043L7.79622 7.55793L7.46622 7.32168H7.86747L7.99497 6.93918ZM10.275 6.93918L10.3987 7.32542H10.8L10.4775 7.56167L10.6012 7.94043L10.275 7.70793L9.94872 7.94043L10.0725 7.55793L9.74997 7.32168H10.1512L10.275 6.93918ZM12.555 6.93918L12.6787 7.32542H13.0837L12.7537 7.56167L12.8812 7.94043L12.555 7.70793L12.2287 7.94043L12.3562 7.55793L12.0262 7.32168H12.4312L12.555 6.93918ZM2.29497 7.91043L2.41872 8.29292H2.82747L2.50122 8.52918L2.62497 8.91543L2.29872 8.67542L1.97247 8.91167L2.09622 8.52918L1.77372 8.29292H2.17497L2.29497 7.91043ZM4.57497 7.91043L4.70247 8.29292H5.10372L4.77372 8.52918L4.90122 8.91543L4.57497 8.67542L4.24872 8.91167L4.37247 8.52918L4.04622 8.29292H4.45122L4.57497 7.91043ZM6.85497 7.91043L6.97872 8.29292H7.38372L7.05747 8.52918L7.18122 8.91543L6.85497 8.67542L6.52872 8.91167L6.65247 8.52918L6.32997 8.29292H6.72747L6.85497 7.91043ZM9.13497 7.91043L9.26247 8.29292H9.66372L9.33747 8.52918L9.46122 8.91543L9.13497 8.67542L8.81247 8.91167L8.93247 8.52918L8.60622 8.29292H9.01497L9.13497 7.91043ZM11.415 7.91043L11.5387 8.29292H11.9437L11.6175 8.52918L11.7412 8.91543L11.415 8.67542L11.0887 8.91167L11.2125 8.52918L10.89 8.29292H11.2912L11.415 7.91043ZM1.15497 8.88167L1.28247 9.26418H1.67997L1.35747 9.50042L1.48122 9.88293L1.15497 9.64668L0.832471 9.88293L0.952471 9.49668L0.626221 9.26043H1.03497L1.15497 8.88167ZM3.43497 8.88167L3.55872 9.26418H3.96372L3.63747 9.50042L3.76122 9.88293L3.43497 9.64668L3.10872 9.88293L3.23622 9.49668L2.90997 9.26043H3.30747L3.43497 8.88167ZM5.71497 8.88167L5.83872 9.26418H6.23997L5.92497 9.50042L6.04872 9.88293L5.72247 9.64668L5.39622 9.88293L5.51997 9.49668L5.19372 9.26043H5.59872L5.71497 8.88167ZM7.99497 8.88167L8.11872 9.26418H8.52372L8.19747 9.50042L8.32122 9.88293L7.99497 9.64668L7.66872 9.88293L7.79622 9.49668L7.46622 9.26043H7.86747L7.99497 8.88167ZM10.275 8.88167L10.3987 9.26418H10.8L10.4775 9.50042L10.6012 9.88293L10.275 9.64668L9.94872 9.88293L10.0725 9.49668L9.74997 9.26043H10.1512L10.275 8.88167ZM12.555 8.88167L12.6787 9.26418H13.0837L12.7537 9.50042L12.8812 9.88293L12.555 9.64668L12.2287 9.88293L12.3562 9.49668L12.0262 9.26043H12.4312L12.555 8.88167Z" fill="white"/>
</g>
<defs>
<clipPath id="clip0_7_313">
<rect width="24" height="18" fill="white" transform="translate(0.0148926 0.710449)"/>
</clipPath>
</defs>
</svg>
